<svg width="22" height="26" viewBox="0 0 22 26" fill="none" xmlns="http://www.w3.org/2000/svg">
<g clip-path="url(#clip0_688_5175)">
<path d="M22 10.659C19.8373 10.6638 17.7278 9.96566 15.9696 8.66328V17.743C15.9691 19.4246 15.4721 21.0659 14.5451 22.4475C13.6181 23.8291 12.3052 24.8851 10.7821 25.4742C9.25899 26.0633 7.59824 26.1575 6.02198 25.7441C4.44571 25.3307 3.02908 24.4295 1.96153 23.161C0.893986 21.8925 0.22643 20.3172 0.048142 18.6457C-0.130146 16.9742 0.189334 15.2863 0.963855 13.8077C1.73838 12.3291 2.93101 11.1303 4.38226 10.3716C5.8335 9.61285 7.47417 9.33045 9.08483 9.56211V14.1273C8.34835 13.8876 7.55745 13.8946 6.82506 14.1474C6.09267 14.4002 5.45623 14.8858 5.00662 15.5348C4.55701 16.1839 4.31722 16.9633 4.32149 17.7618C4.32576 18.5602 4.57387 19.3368 5.03039 19.9807C5.48691 20.6246 6.1285 21.1029 6.86355 21.3473C7.5986 21.5917 8.38952 21.5896 9.12339 21.3415C9.85726 21.0933 10.4965 20.6118 10.95 19.9655C11.4034 19.3193 11.6478 18.5414 11.6482 17.743V0H15.9696C15.9672 0.377947 15.9984 0.755322 16.063 1.12734C16.2132 1.9566 16.5255 2.74546 16.9806 3.44571C17.4357 4.14595 18.0241 4.74288 18.7098 5.2C19.686 5.86668 20.8302 6.22165 22 6.2207V10.659Z" fill="#0A0400"/>
</g>
<defs>
<clipPath id="clip0_688_5175">
<rect width="22" height="26" fill="white"/>
</clipPath>
</defs>
</svg>
