<svg width="48" height="42" viewBox="0 0 48 42" fill="none" xmlns="http://www.w3.org/2000/svg">
<ellipse cx="7.3052" cy="13.6516" rx="1.04348" ry="1.05" fill="#4FBA74"/>
<ellipse cx="7.3052" cy="20.9992" rx="1.04348" ry="1.05" fill="#4FBA74"/>
<ellipse cx="7.3052" cy="28.3508" rx="1.04348" ry="1.05" fill="#4FBA74"/>
<ellipse cx="24.0005" cy="6.3" rx="1.04348" ry="1.05" fill="#4FBA74"/>
<ellipse cx="24.0005" cy="13.6516" rx="1.04348" ry="1.05" fill="#4FBA74"/>
<ellipse cx="24.0005" cy="20.9992" rx="1.04348" ry="1.05" fill="#4FBA74"/>
<ellipse cx="24.0005" cy="28.3508" rx="1.04348" ry="1.05" fill="#4FBA74"/>
<ellipse cx="24.0005" cy="35.6984" rx="1.04348" ry="1.05" fill="#4FBA74"/>
<ellipse cx="32.3482" cy="6.3" rx="1.04348" ry="1.05" fill="#4FBA74"/>
<ellipse cx="32.3482" cy="13.6516" rx="1.04348" ry="1.05" fill="#4FBA74"/>
<ellipse cx="32.3482" cy="20.9992" rx="1.04348" ry="1.05" fill="#4FBA74"/>
<ellipse cx="32.3482" cy="28.3508" rx="1.04348" ry="1.05" fill="#4FBA74"/>
<ellipse cx="32.3482" cy="35.6984" rx="1.04348" ry="1.05" fill="#4FBA74"/>
<ellipse cx="40.6958" cy="13.6516" rx="1.04348" ry="1.05" fill="#4FBA74"/>
<ellipse cx="40.6958" cy="20.9992" rx="1.04348" ry="1.05" fill="#4FBA74"/>
<ellipse cx="40.6958" cy="28.3508" rx="1.04348" ry="1.05" fill="#4FBA74"/>
<ellipse cx="15.6529" cy="6.3" rx="1.04348" ry="1.05" fill="#4FBA74"/>
<ellipse cx="15.6529" cy="13.6516" rx="1.04348" ry="1.05" fill="#4FBA74"/>
<ellipse cx="15.6529" cy="20.9992" rx="1.04348" ry="1.05" fill="#4FBA74"/>
<ellipse cx="15.6529" cy="28.3508" rx="1.04348" ry="1.05" fill="#4FBA74"/>
<ellipse cx="15.6529" cy="35.6984" rx="1.04348" ry="1.05" fill="#4FBA74"/>
</svg>
