<svg width="124" height="122" viewBox="0 0 124 122" fill="none" xmlns="http://www.w3.org/2000/svg">
<circle cx="14" cy="40" r="2" fill="#4FBA74"/>
<circle cx="14" cy="54" r="2" fill="#4FBA74"/>
<circle cx="46" cy="12" r="2" fill="#4FBA74"/>
<circle cx="46" cy="26" r="2" fill="#4FBA74"/>
<circle cx="94" cy="68" r="2" fill="#4FBA74"/>
<circle cx="94" cy="40" r="2" fill="#4FBA74"/>
<circle cx="46" cy="82" r="2" fill="#4FBA74"/>
<circle cx="46" cy="40" r="2" fill="#4FBA74"/>
<circle cx="94" cy="82" r="2" fill="#4FBA74"/>
<circle cx="94" cy="54" r="2" fill="#4FBA74"/>
<circle cx="46" cy="96" r="2" fill="#4FBA74"/>
<circle cx="46" cy="54" r="2" fill="#4FBA74"/>
<circle cx="94" cy="96" r="2" fill="#4FBA74"/>
<circle cx="78" cy="110" r="2" fill="#4FBA74"/>
<circle cx="46" cy="110" r="2" fill="#4FBA74"/>
<circle cx="46" cy="68" r="2" fill="#4FBA74"/>
<circle cx="62" cy="12" r="2" fill="#4FBA74"/>
<circle cx="62" cy="26" r="2" fill="#4FBA74"/>
<circle cx="110" cy="68" r="2" fill="#4FBA74"/>
<circle cx="62" cy="82" r="2" fill="#4FBA74"/>
<circle cx="62" cy="40" r="2" fill="#4FBA74"/>
<circle cx="78" cy="12" r="2" fill="#4FBA74"/>
<circle cx="110" cy="82" r="2" fill="#4FBA74"/>
<circle cx="62" cy="96" r="2" fill="#4FBA74"/>
<circle cx="62" cy="54" r="2" fill="#4FBA74"/>
<circle cx="62" cy="110" r="2" fill="#4FBA74"/>
<circle cx="62" cy="68" r="2" fill="#4FBA74"/>
<circle cx="78" cy="26" r="2" fill="#4FBA74"/>
<circle cx="78" cy="40" r="2" fill="#4FBA74"/>
<circle cx="94" cy="26" r="2" fill="#4FBA74"/>
<circle cx="78" cy="54" r="2" fill="#4FBA74"/>
<circle cx="30" cy="26" r="2" fill="#4FBA74"/>
<circle cx="78" cy="68" r="2" fill="#4FBA74"/>
<circle cx="110" cy="40" r="2" fill="#4FBA74"/>
<circle cx="14" cy="68" r="2" fill="#4FBA74"/>
<circle cx="30" cy="40" r="2" fill="#4FBA74"/>
<circle cx="78" cy="82" r="2" fill="#4FBA74"/>
<circle cx="110" cy="54" r="2" fill="#4FBA74"/>
<circle cx="30" cy="96" r="2" fill="#4FBA74"/>
<circle cx="14" cy="82" r="2" fill="#4FBA74"/>
<circle cx="30" cy="82" r="2" fill="#4FBA74"/>
<circle cx="30" cy="54" r="2" fill="#4FBA74"/>
<circle cx="78" cy="96" r="2" fill="#4FBA74"/>
<circle cx="30" cy="68" r="2" fill="#4FBA74"/>
</svg>
