<svg width="80" height="80" viewBox="0 0 80 80" fill="none" xmlns="http://www.w3.org/2000/svg">
<path fill-rule="evenodd" clip-rule="evenodd" d="M42.4 20H62.4L64.9 22.5V32.65H67.5L70 35.15V40L67.5 42.5H64.9V57.5L62.4 60H46.8L34.3 73.8L30 72V60H17.5L15 56.8V42.5H12.5L10 40V35.15L12.5 32.65H15V21.8L17.65 20H37.65V14.3C36.8663 13.883 36.2078 13.2649 35.7421 12.5092C35.2764 11.7535 35.0202 10.8875 35 10C35 8.67392 35.5268 7.40215 36.4645 6.46447C37.4021 5.52678 38.6739 5 40 5C41.3261 5 42.5979 5.52678 43.5355 6.46447C44.4732 7.40215 45 8.67392 45 10C44.9589 10.8566 44.6982 11.6883 44.2429 12.4151C43.7875 13.1419 43.1529 13.7393 42.4 14.15V20ZM60 40V25H20V54.3L32.5 55H35V65.95L44 55.75L45.75 55H60V40ZM49.4 42.55C47.5278 44.4269 45.1461 45.7133 42.55 46.25V46.2C40.3843 46.6143 38.1502 46.4939 36.0416 45.8491C33.933 45.2043 32.0136 44.0547 30.45 42.5L26.95 46.05C28.65 47.75 30.675 49.09 32.9 50C35.15 50.94 37.56 51.43 40 51.45C44.8338 51.4205 49.4641 49.5002 52.9 46.1L49.4 42.55ZM32.45 32.5H27.45V37.5H32.45V32.5ZM47.45 32.5H52.45V37.5H47.45V32.5Z" fill="#FE6B01"/>
</svg>
