<svg width="30" height="36" viewBox="0 0 30 36" fill="none" xmlns="http://www.w3.org/2000/svg">
<path d="M30 14.7586C27.0509 14.7652 24.1743 13.7986 21.7768 11.9953V24.5672C21.7761 26.8956 21.0984 29.1682 19.8342 31.0812C18.5701 32.9942 16.7798 34.4563 14.7029 35.2719C12.6259 36.0876 10.3612 36.218 8.21179 35.6456C6.06234 35.0733 4.13056 33.8255 2.67482 32.0691C1.21907 30.3127 0.308768 28.1314 0.0656482 25.8171C-0.177472 23.5028 0.258183 21.1657 1.31435 19.1184C2.37051 17.071 3.99683 15.4111 5.97581 14.3606C7.95478 13.3101 10.192 12.9191 12.3884 13.2398V19.5609C11.3841 19.229 10.3056 19.2387 9.3069 19.5887C8.30818 19.9387 7.44031 20.611 6.82721 21.5098C6.21411 22.4085 5.88712 23.4877 5.89294 24.5932C5.89876 25.6987 6.23709 26.774 6.85962 27.6656C7.48214 28.5571 8.35704 29.2194 9.35938 29.5578C10.3617 29.8961 11.4403 29.8933 12.441 29.5498C13.4417 29.2062 14.3135 28.5394 14.9318 27.6446C15.5501 26.7498 15.8833 25.6727 15.8839 24.5672V0H21.7768C21.7735 0.523311 21.8161 1.04583 21.904 1.56094C22.109 2.70914 22.5347 3.80141 23.1553 4.77098C23.7759 5.74055 24.5783 6.56706 25.5134 7.2C26.8445 8.12309 28.4048 8.61459 30 8.61328V14.7586Z" fill="#FDFDFD"/>
</svg>
