<svg width="50" height="50" viewBox="0 0 50 50" fill="none" xmlns="http://www.w3.org/2000/svg">
<path fill-rule="evenodd" clip-rule="evenodd" d="M25 50C38.8071 50 50 38.8071 50 25C50 11.1929 38.8071 0 25 0C11.1929 0 0 11.1929 0 25C0 38.8071 11.1929 50 25 50ZM37.7475 17.9142C38.5286 17.1332 38.5286 15.8668 37.7475 15.0858C36.9665 14.3047 35.7002 14.3047 34.9191 15.0858L20.75 29.2549L15.0809 23.5858C14.2998 22.8047 13.0335 22.8047 12.2525 23.5858C11.4714 24.3668 11.4714 25.6332 12.2525 26.4142L19.3358 33.4975C20.1168 34.2786 21.3832 34.2786 22.1642 33.4975L37.7475 17.9142Z" fill="#4FBA74"/>
</svg>
