<svg width="20" height="20" viewBox="0 0 20 20" fill="none" xmlns="http://www.w3.org/2000/svg">
<path d="M8.60089 17.2011C6.89979 17.2011 5.2369 16.6967 3.82249 15.7517C2.40809 14.8066 1.30569 13.4633 0.654709 11.8918C0.0037261 10.3203 -0.166601 8.59095 0.16527 6.92266C0.49714 5.25432 1.31629 3.72185 2.51915 2.51904C3.722 1.31624 5.25453 0.49712 6.92293 0.165263C8.5913 -0.166594 10.3207 0.00372596 11.8923 0.654682C13.4639 1.30564 14.8072 2.40799 15.7523 3.82234C16.6974 5.23669 17.2018 6.89952 17.2018 8.60055C17.2018 9.72993 16.9793 10.8483 16.5471 11.8918C16.1148 12.9353 15.4813 13.8834 14.6826 14.682C13.884 15.4806 12.9358 16.1142 11.8923 16.5464C10.8488 16.9786 9.73032 17.2011 8.60089 17.2011ZM8.60089 1.72468C7.24544 1.72468 5.92042 2.12661 4.7934 2.87963C3.66639 3.63264 2.78798 4.70294 2.26928 5.95516C1.75056 7.20739 1.61484 8.58524 1.87928 9.91461C2.14371 11.244 2.79643 12.4651 3.75487 13.4235C4.71333 14.3819 5.93446 15.0346 7.26387 15.299C8.59324 15.5634 9.97121 15.4278 11.2235 14.9091C12.4757 14.3903 13.5461 13.512 14.2992 12.385C15.0522 11.258 15.4542 9.93312 15.4542 8.5777C15.4542 6.76016 14.7322 5.01707 13.4469 3.73188C12.1616 2.44669 10.4185 1.72468 8.60089 1.72468Z" fill="#FF6B00"/>
<path d="M19.1441 20C19.0316 20.0005 18.92 19.9785 18.8161 19.9353C18.7122 19.8923 18.6178 19.8288 18.5388 19.7487L13.8214 15.0316C13.6701 14.8691 13.5877 14.6543 13.5916 14.4324C13.5955 14.2105 13.6855 13.9988 13.8424 13.8418C13.9994 13.6848 14.2111 13.5949 14.4331 13.5911C14.655 13.5872 14.8697 13.6695 15.0322 13.8209L19.7495 18.538C19.9099 18.6986 20 18.9163 20 19.1434C20 19.3703 19.9099 19.588 19.7495 19.7487C19.6705 19.8288 19.5761 19.8923 19.4722 19.9353C19.3682 19.9785 19.2566 20.0005 19.1441 20Z" fill="#FF6B00"/>
</svg>
