<svg width="16" height="17" viewBox="0 0 16 17" fill="none" xmlns="http://www.w3.org/2000/svg">
<path d="M11.9999 14.4993C11.9999 13.0849 11.438 11.7283 10.4378 10.7281C9.43763 9.72792 8.08107 9.16602 6.66659 9.16602C5.2521 9.16602 3.89554 9.72792 2.89535 10.7281C1.89516 11.7283 1.33325 13.0849 1.33325 14.4993" stroke="#928175" stroke-width="1.2" stroke-linecap="round" stroke-linejoin="round"/>
<path d="M6.66658 9.16667C8.50753 9.16667 9.99992 7.67428 9.99992 5.83333C9.99992 3.99238 8.50753 2.5 6.66658 2.5C4.82564 2.5 3.33325 3.99238 3.33325 5.83333C3.33325 7.67428 4.82564 9.16667 6.66658 9.16667Z" stroke="#928175" stroke-width="1.2" stroke-linecap="round" stroke-linejoin="round"/>
<path d="M14.6666 13.8335C14.6666 11.5868 13.3333 9.50013 12 8.50013C12.4382 8.17131 12.7887 7.73952 13.0203 7.24298C13.252 6.74643 13.3576 6.20044 13.328 5.65333C13.2983 5.10622 13.1342 4.57485 12.8503 4.10626C12.5663 3.63767 12.1712 3.2463 11.7 2.9668" stroke="#928175" stroke-width="1.2" stroke-linecap="round" stroke-linejoin="round"/>
</svg>
