<svg width="92" height="80" viewBox="0 0 92 80" fill="none" xmlns="http://www.w3.org/2000/svg">
<circle cx="14" cy="26" r="2" fill="#FDFDFD"/>
<circle cx="14" cy="40" r="2" fill="#FDFDFD"/>
<circle cx="14" cy="54" r="2" fill="#FDFDFD"/>
<circle cx="46" cy="12" r="2" fill="#FDFDFD"/>
<circle cx="46" cy="26" r="2" fill="#FDFDFD"/>
<circle cx="46" cy="40" r="2" fill="#FDFDFD"/>
<circle cx="46" cy="54" r="2" fill="#FDFDFD"/>
<circle cx="46" cy="68" r="2" fill="#FDFDFD"/>
<circle cx="62" cy="12" r="2" fill="#FDFDFD"/>
<circle cx="62" cy="26" r="2" fill="#FDFDFD"/>
<circle cx="62" cy="40" r="2" fill="#FDFDFD"/>
<circle cx="62" cy="54" r="2" fill="#FDFDFD"/>
<circle cx="62" cy="68" r="2" fill="#FDFDFD"/>
<circle cx="78" cy="26" r="2" fill="#FDFDFD"/>
<circle cx="78" cy="40" r="2" fill="#FDFDFD"/>
<circle cx="78" cy="54" r="2" fill="#FDFDFD"/>
<circle cx="30" cy="12" r="2" fill="#FDFDFD"/>
<circle cx="30" cy="26" r="2" fill="#FDFDFD"/>
<circle cx="30" cy="40" r="2" fill="#FDFDFD"/>
<circle cx="30" cy="54" r="2" fill="#FDFDFD"/>
<circle cx="30" cy="68" r="2" fill="#FDFDFD"/>
</svg>
