<svg width="102" height="102" viewBox="0 0 102 102" fill="none" xmlns="http://www.w3.org/2000/svg">
<path fill-rule="evenodd" clip-rule="evenodd" d="M54.06 25.5H79.56L82.7475 28.6875V41.6288H86.0625L89.25 44.8163V51L86.0625 54.1875H82.7475V73.3125L79.56 76.5H59.67L43.7325 94.095L38.25 91.8V76.5H22.3125L19.125 72.42V54.1875H15.9375L12.75 51V44.8163L15.9375 41.6288H19.125V27.795L22.5038 25.5H48.0038V18.2325C47.0046 17.7008 46.165 16.9128 45.5712 15.9493C44.9774 14.9857 44.6508 13.8815 44.625 12.75C44.625 11.0592 45.2967 9.43774 46.4922 8.24219C47.6877 7.04665 49.3092 6.375 51 6.375C52.6908 6.375 54.3123 7.04665 55.5078 8.24219C56.7034 9.43774 57.375 11.0592 57.375 12.75C57.3226 13.8422 56.9902 14.9026 56.4096 15.8293C55.8291 16.7559 55.02 17.5176 54.06 18.0413V25.5ZM76.5 51V31.875H25.5V69.2325L41.4375 70.125H44.625V84.0863L56.1 71.0813L58.3312 70.125H76.5V51ZM62.985 54.2513C60.5979 56.6443 57.5613 58.2845 54.2513 58.9688V58.905C51.49 59.4333 48.6415 59.2797 45.953 58.4576C43.2646 57.6355 40.8173 56.1697 38.8238 54.1875L34.3612 58.7138C36.5287 60.8813 39.1106 62.5898 41.9475 63.75C44.8163 64.9485 47.889 65.5733 51 65.5988C57.1631 65.5611 63.0667 63.1127 67.4475 58.7775L62.985 54.2513ZM41.3737 41.4375H34.9987V47.8125H41.3737V41.4375ZM60.4987 41.4375H66.8738V47.8125H60.4987V41.4375Z" fill="#FE6B01"/>
</svg>
