<svg width="102" height="102" viewBox="0 0 102 102" fill="none" xmlns="http://www.w3.org/2000/svg">
<mask id="mask0_759_14223" style="mask-type:alpha" maskUnits="userSpaceOnUse" x="0" y="0" width="102" height="102">
<rect width="102" height="102" fill="#D9D9D9"/>
</mask>
<g mask="url(#mask0_759_14223)">
<path d="M8.5 51V42.5H21.25V51H8.5ZM22.95 74.5875L17 68.425L25.925 59.5L32.0875 65.45L22.95 74.5875ZM25.925 34L17 25.075L22.95 18.9125L32.0875 28.05L25.925 34ZM76.5 85L56.3125 64.8125L51 80.75L38.25 38.25L80.75 51L65.025 56.525L85 76.5L76.5 85ZM42.5 25.5V12.75H51V25.5H42.5ZM67.575 34L61.4125 28.05L70.55 18.9125L76.5 24.8625L67.575 34Z" fill="#FE6B01"/>
</g>
</svg>
