<svg width="44" height="50" viewBox="0 0 44 50" fill="none" xmlns="http://www.w3.org/2000/svg">
<g clip-path="url(#clip0_353_13034)">
<path d="M22.0099 13.769C15.7634 13.769 10.725 18.7788 10.725 24.9897C10.725 31.2007 15.7634 36.2104 22.0099 36.2104C28.2563 36.2104 33.2947 31.2007 33.2947 24.9897C33.2947 18.7788 28.2563 13.769 22.0099 13.769ZM22.0099 32.2847C17.9733 32.2847 14.6733 29.0132 14.6733 24.9897C14.6733 20.9663 17.9634 17.6948 22.0099 17.6948C26.0563 17.6948 29.3465 20.9663 29.3465 24.9897C29.3465 29.0132 26.0465 32.2847 22.0099 32.2847ZM36.3884 13.3101C36.3884 14.7651 35.2099 15.9272 33.7563 15.9272C32.2929 15.9272 31.1242 14.7554 31.1242 13.3101C31.1242 11.8647 32.3027 10.6929 33.7563 10.6929C35.2099 10.6929 36.3884 11.8647 36.3884 13.3101ZM43.8625 15.9663C43.6956 12.4605 42.8902 9.35498 40.3072 6.79639C37.734 4.23779 34.6108 3.43701 31.0849 3.26123C27.4509 3.05615 16.559 3.05615 12.925 3.26123C9.40897 3.42725 6.28576 4.22803 3.70272 6.78662C1.11969 9.34522 0.324149 12.4507 0.147363 15.9565C-0.0588867 19.5698 -0.0588867 30.3999 0.147363 34.0132C0.314328 37.519 1.11969 40.6245 3.70272 43.1831C6.28576 45.7417 9.39915 46.5425 12.925 46.7183C16.559 46.9233 27.4509 46.9233 31.0849 46.7183C34.6108 46.5522 37.734 45.7515 40.3072 43.1831C42.8804 40.6245 43.6858 37.519 43.8625 34.0132C44.0688 30.3999 44.0688 19.5796 43.8625 15.9663ZM39.1679 37.8901C38.4018 39.8042 36.9188 41.2788 34.984 42.0503C32.0867 43.1929 25.2117 42.9292 22.0099 42.9292C18.8081 42.9292 11.9233 43.1831 9.03576 42.0503C7.11076 41.2886 5.62772 39.814 4.85183 37.8901C3.70272 35.0093 3.9679 28.1733 3.9679 24.9897C3.9679 21.8062 3.71254 14.9605 4.85183 12.0894C5.6179 10.1753 7.10094 8.70068 9.03576 7.9292C11.9331 6.78662 18.8081 7.05029 22.0099 7.05029C25.2117 7.05029 32.0965 6.79639 34.984 7.9292C36.909 8.69092 38.392 10.1655 39.1679 12.0894C40.317 14.9702 40.0518 21.8062 40.0518 24.9897C40.0518 28.1733 40.317 35.019 39.1679 37.8901Z" fill="#0A0400"/>
</g>
<defs>
<clipPath id="clip0_353_13034">
<rect width="44" height="50" fill="white"/>
</clipPath>
</defs>
</svg>
