<svg width="42" height="50" viewBox="0 0 42 50" fill="none" xmlns="http://www.w3.org/2000/svg">
<g clip-path="url(#clip0_353_13036)">
<path d="M42 20.498C37.8712 20.5073 33.844 19.1647 30.4875 16.6602V34.1211C30.4865 37.3549 29.5377 40.5114 27.7679 43.1683C25.9981 45.8252 23.4918 47.8559 20.584 48.9888C17.6763 50.1217 14.5057 50.3028 11.4965 49.5078C8.48727 48.7129 5.78278 46.9798 3.74474 44.5404C1.7067 42.1009 0.432275 39.0715 0.0919074 35.8571C-0.248461 32.6427 0.361457 29.3968 1.84009 26.5533C3.31872 23.7098 5.59557 21.4043 8.36613 19.9453C11.1367 18.4863 14.2689 17.9432 17.3438 18.3887V27.168C15.9378 26.7069 14.4279 26.7204 13.0297 27.2065C11.6315 27.6926 10.4164 28.6265 9.55809 29.8747C8.69975 31.123 8.24197 32.6218 8.25012 34.1572C8.25827 35.6926 8.73193 37.1861 9.60346 38.4244C10.475 39.6627 11.6999 40.5825 13.1031 41.0525C14.5064 41.5224 16.0164 41.5185 17.4174 41.0413C18.8184 40.5641 20.0389 39.638 20.9045 38.3952C21.7701 37.1524 22.2367 35.6565 22.2375 34.1211V0H30.4875C30.4829 0.726821 30.5425 1.45254 30.6656 2.16797C30.9525 3.7627 31.5486 5.27973 32.4175 6.62636C33.2863 7.97299 34.4096 9.12092 35.7188 10C37.5823 11.2821 39.7667 11.9647 42 11.9629V20.498Z" fill="#0A0400"/>
</g>
<defs>
<clipPath id="clip0_353_13036">
<rect width="42" height="50" fill="white"/>
</clipPath>
</defs>
</svg>
