<svg width="102" height="102" viewBox="0 0 102 102" fill="none" xmlns="http://www.w3.org/2000/svg">
<path d="M29.75 72.25H21.2501C15.5966 72.25 12.75 69.5725 12.75 64.2547V20.7454C12.75 15.4276 15.5966 12.75 21.2501 12.75H38.25C43.9035 12.75 46.75 15.4276 46.75 20.7454V27.625" fill="transparent"/>
<path d="M29.75 72.25H21.2501C15.5966 72.25 12.75 69.5725 12.75 64.2547V20.7454C12.75 15.4276 15.5966 12.75 21.2501 12.75H38.25C43.9035 12.75 46.75 15.4276 46.75 20.7454V27.625" stroke="#FE6B01" stroke-width="6" stroke-miterlimit="10" stroke-linecap="round" stroke-linejoin="round"/>
<path d="M55.25 27.625V20.7454C55.25 15.4276 58.0965 12.75 63.75 12.75H80.75C86.4035 12.75 89.25 15.4276 89.25 20.7454V64.2547C89.25 69.5725 86.4035 72.25 80.75 72.25H72.25" fill="transparent"/>
<path d="M55.25 27.625V20.7454C55.25 15.4276 58.0965 12.75 63.75 12.75H80.75C86.4035 12.75 89.25 15.4276 89.25 20.7454V64.2547C89.25 69.5725 86.4035 72.25 80.75 72.25H72.25" fill="transparent" stroke="#FE6B01" stroke-width="6" stroke-miterlimit="10" stroke-linecap="round" stroke-linejoin="round"/>
<path d="M72.25 38.7493V80.2506C72.25 86.2378 69.0639 89.25 62.651 89.25H39.3891C32.9763 89.25 29.75 86.2378 29.75 80.2506V38.7493C29.75 32.7621 32.9763 29.75 39.3891 29.75H62.651C69.0639 29.75 72.25 32.7621 72.25 38.7493Z" stroke="#FE6B01" stroke-width="6" stroke-miterlimit="10" stroke-linecap="round" stroke-linejoin="round"/>
<path d="M42.5 46.75H59.5" stroke="#FE6B01" stroke-width="6" stroke-miterlimit="10" stroke-linecap="round" stroke-linejoin="round"/>
<path d="M42.5 59.5H59.5" stroke="#FE6B01" stroke-width="6" stroke-miterlimit="10" stroke-linecap="round" stroke-linejoin="round"/>
</svg>
