<svg width="756" height="1100" viewBox="0 0 756 1100" fill="none" xmlns="http://www.w3.org/2000/svg">
<g filter="url(#filter0_d_776_16222)">
<path fill-rule="evenodd" clip-rule="evenodd" d="M60 50C60 41.1635 67.1634 34 76 34H608C616.837 34 624 41.1634 624 50V350C624 358.837 616.837 366 608 366H475.001C468.374 366 463.001 371.373 463.001 378V383C463.001 389.627 468.374 395 475.001 395H825C833.837 395 841 402.163 841 411V729C841 737.837 833.837 745 825 745H462.63C456.003 745 450.63 750.373 450.63 757V764C450.63 770.627 456.003 776 462.63 776H508C516.837 776 524 783.163 524 792V1050C524 1058.84 516.837 1066 508 1066H50C41.1634 1066 34 1058.84 34 1050V792C34 783.163 41.1634 776 50 776H346.63C353.257 776 358.63 770.627 358.63 764V757C358.63 750.373 353.257 745 346.63 745H216C207.163 745 200 737.837 200 729V411C200 402.163 207.163 395 216 395H359.001C365.628 395 371.001 389.627 371.001 383V378C371.001 371.373 365.628 366 359.001 366H76C67.1634 366 60 358.837 60 350V50Z" fill="#FAFFFB"/>
</g>
<defs>
<filter id="filter0_d_776_16222" x="0.4" y="0.4" width="874.2" height="1099.2" filterUnits="userSpaceOnUse" color-interpolation-filters="sRGB">
<feFlood flood-opacity="0" result="BackgroundImageFix"/>
<feColorMatrix in="SourceAlpha" type="matrix" values="0 0 0 0 0 0 0 0 0 0 0 0 0 0 0 0 0 0 127 0" result="hardAlpha"/>
<feMorphology radius="9" operator="dilate" in="SourceAlpha" result="effect1_dropShadow_776_16222"/>
<feOffset/>
<feGaussianBlur stdDeviation="12.3"/>
<feComposite in2="hardAlpha" operator="out"/>
<feColorMatrix type="matrix" values="0 0 0 0 0.789261 0 0 0 0 0.33149 0 0 0 0 0 0 0 0 0.08 0"/>
<feBlend mode="normal" in2="BackgroundImageFix" result="effect1_dropShadow_776_16222"/>
<feBlend mode="normal" in="SourceGraphic" in2="effect1_dropShadow_776_16222" result="shape"/>
</filter>
</defs>
</svg>
