<svg width="102" height="102" viewBox="0 0 102 102" fill="none" xmlns="http://www.w3.org/2000/svg">
<path d="M79.7545 87.6284C78.2436 87.5678 76.7296 87.5646 75.2187 87.5646L65.8156 87.52C63.9636 87.5232 62.1085 87.5487 60.2598 87.5742C58.1911 87.5997 56.1288 87.6284 54.0601 87.6284C53.1708 87.6284 45.2084 87.5678 43.7772 87.5455C42.6616 87.5296 41.5491 87.4977 40.4367 87.469C39.0979 87.4339 37.7624 87.3989 36.4236 87.3861L34.5143 87.3734C32.7166 87.3734 30.9188 87.4053 29.1211 87.4594C28.066 87.4913 27.0141 87.5136 25.9654 87.5136C24.2123 87.5136 22.6664 87.4467 21.2416 87.3096L20.9133 87.2459C20.6742 87.2809 20.4383 87.3128 20.1993 87.3128C18.9816 87.3128 17.9011 86.4968 17.5696 85.327C16.6866 82.1873 15.8324 79.0413 15.0514 75.8665C14.5128 73.6703 13.9868 71.471 13.4641 69.2684L12.1444 63.7221C11.7906 62.2399 11.4368 60.7578 11.0703 59.2788C10.5985 57.4141 10.1682 55.5398 9.73788 53.6656L9.2215 51.4471C8.71788 49.2923 8.21425 47.1344 7.77119 44.9669C7.57675 44.0106 7.39188 43.0544 7.21975 42.095C7.1815 41.9675 7.14963 41.7953 7.13688 41.6232C6.89463 40.2558 6.6715 38.8565 6.4675 37.454C6.34638 37.0077 6.34638 36.52 6.47388 36.0387C6.60457 35.5797 6.84044 35.1749 7.17832 34.8402C7.68832 34.3334 8.38638 34.0401 9.10038 34.0401C9.50838 34.0051 9.80482 33.9413 10.1331 33.9158C11.2009 33.8234 12.2719 33.7979 13.3398 33.7979L14.857 33.8106C17.2795 33.8393 19.7084 33.8521 22.1309 33.8648C23.4983 33.8712 24.8658 33.9126 26.23 33.9509L26.8133 33.9668L27.0173 33.5525C27.3424 32.6886 27.5847 31.777 27.8269 30.859C28.1553 29.6191 28.4708 28.376 28.7832 27.1296C28.8756 26.7663 29.0605 26.4348 29.3697 26.0873C29.8255 25.2395 30.7371 24.6753 31.7061 24.6753C32.9269 24.6816 34.1382 24.7071 35.3494 24.7326C36.4555 24.7581 39.1426 24.79 39.1426 24.79C40.2486 24.79 41.3579 24.7677 42.4639 24.7486L44.8896 24.7103C44.8896 24.7103 51.4495 24.704 51.4623 24.704C52.4727 24.704 53.26 24.7263 54.0473 24.7518L55.4913 24.7868L56.3232 22.1635C56.5208 21.4973 56.7089 20.8248 56.8969 20.1522C57.1488 19.2501 57.4006 18.3481 57.6779 17.4556C57.9137 16.7097 58.4588 16.085 59.1824 15.7407C59.5266 14.9789 60.3968 14.4211 61.3148 14.4211L62.5069 14.4721C63.6736 14.5231 64.8338 14.5773 66.0004 14.606C66.9312 14.6283 67.8619 14.6315 68.7895 14.6315L73.099 14.6346L75.1039 14.6665C76.4554 14.6888 77.8037 14.7143 79.1553 14.7143L80.2326 14.708C81.7467 14.692 83.2639 14.6378 84.778 14.5836L87.7487 14.488C88.4787 14.4689 89.2086 14.4498 89.9386 14.4147L90.6366 14.3765C91.0829 14.351 91.5259 14.3223 91.9722 14.3223C92.3101 14.3223 92.6511 14.3382 92.9922 14.3828H93.0049C93.4352 14.3828 93.8847 14.504 94.3022 14.743C94.6911 14.9725 95.0131 15.2945 95.2617 15.7025C95.6251 16.3336 95.7239 17.0858 95.5326 17.7711C95.6187 18.4501 95.6793 19.0653 95.5454 19.69L95.0449 22.0456C94.7039 23.6266 94.366 25.2044 94.0791 26.7981C93.6393 29.2143 93.2026 31.6336 92.8232 34.0625C92.5714 35.6753 92.2686 37.2754 91.9658 38.8788L91.5004 41.3969C91.0733 43.7811 90.6972 46.1718 90.3306 48.5688C89.9673 50.9403 89.5592 53.3022 89.1513 55.6609C88.9473 56.8244 88.7688 57.9942 88.5902 59.1608C88.399 60.4263 88.2046 61.6917 87.9782 62.9508C87.8763 63.5118 87.7583 64.0696 87.6404 64.6306C87.5256 65.182 87.4109 65.7303 87.3121 66.2817L86.5789 70.5338C86.206 72.6376 85.8267 74.7413 85.3773 76.8355C84.9151 79.003 84.4943 81.1896 84.1533 83.3858L84.0321 84.4122C83.9971 85.8243 83.2353 86.9271 82.1196 87.3288C81.7308 87.5551 81.3164 87.6762 80.9052 87.6762L79.7545 87.6284ZM37.9186 82.2511L41.7181 82.3339C44.2298 82.3913 46.7416 82.4487 49.2533 82.4487C50.4359 82.4487 51.6184 82.4359 52.801 82.4041C57.6014 82.2829 62.4018 82.2351 67.2021 82.1905L77.6699 82.165C77.2491 80.4438 76.8507 78.8118 76.4618 77.1734C76.108 75.6785 75.7829 74.1771 75.4546 72.679C75.1358 71.2255 74.8203 69.7752 74.4792 68.3281C74.0361 66.4538 73.5421 64.5987 73.0448 62.734L72.3818 60.2446C71.8623 58.2906 71.3395 56.3367 70.7944 54.3923C70.1187 52.0049 69.5673 49.5856 69.019 47.1695L68.4421 44.6386C68.1106 43.2042 67.7791 41.7698 67.4731 40.3291L66.9726 40.3068C64.7063 40.2558 62.4432 40.1729 60.1737 40.0868C58.717 40.0326 57.2603 39.9944 55.8004 39.9593L52.9317 39.886C52.0838 39.8573 51.2391 39.8 50.3944 39.7426L46.12 39.5003C43.8091 39.3665 41.4981 39.2517 39.1904 39.1848C38.0365 39.1497 36.8794 39.1401 35.7256 39.1306C34.5462 39.121 33.3668 39.1083 32.1874 39.0764L24.7606 38.8501C23.9796 38.8309 23.1955 38.8246 22.4146 38.8246C21.3691 38.8246 17.3783 38.8692 17.3783 38.8692C15.6284 38.8851 13.8816 38.9425 12.1381 39.0573L12.3867 40.9411C12.7373 43.3094 13.2282 45.8275 13.9773 49.1075L14.3247 50.6311C14.8347 52.8783 15.3479 55.1286 15.9344 57.3631C17.1265 61.9021 18.2421 66.4602 19.3578 71.0151L20.0558 73.9508C20.3395 75.1557 20.6232 76.3606 20.926 77.5623C21.2862 79.0158 21.691 80.4693 22.1468 81.9036L23.1286 82.0056C25.363 82.2288 27.658 82.2351 29.8829 82.2447L35.6363 82.2383L37.9186 82.2511ZM68.9266 34.8115C69.6151 34.8115 70.1856 34.8657 70.7148 34.9836C71.3777 35.1271 71.9483 35.5478 72.3276 36.1694C72.7324 36.8356 72.8599 37.6611 72.6655 38.3783L73.1628 41.5531C73.5707 43.7174 73.9788 45.8785 74.4632 48.0301C74.935 50.1434 75.5247 52.2248 76.1112 54.3095C76.3853 55.288 76.6626 56.2698 76.9272 57.2547C76.9272 57.2547 77.6253 59.9322 77.8324 60.6781L78.1353 61.7459C78.3648 62.546 78.5943 63.3492 78.7983 64.1556C79.3848 66.4283 79.9489 68.7074 80.4813 70.9928C80.6151 71.5602 80.7554 72.1276 80.902 72.6918C81.1698 71.3562 81.4088 70.1354 81.6192 68.9114C81.9603 66.9319 82.3268 64.9653 82.6934 62.9954L82.9388 61.6853C83.2098 60.2191 83.4424 58.7465 83.6751 57.2738L84.3445 53.1205C84.6569 51.2112 84.9724 49.3019 85.2529 47.3894L85.4346 46.1463C85.7247 44.1828 86.0116 42.2225 86.3494 40.2685C86.4738 39.5386 87.0475 36.4658 87.0475 36.4658C87.2069 35.5574 87.3503 34.649 87.4906 33.7373L87.6276 32.8608C87.8507 31.42 88.1026 29.9825 88.3544 28.5449L89.0142 24.6912C89.2947 22.97 89.5784 21.2455 89.8876 19.5275L89.3425 19.4988L87.5352 19.4892C85.9733 19.4892 84.4114 19.5147 82.8464 19.5816C80.7681 19.6645 78.6899 19.7219 76.6053 19.7219L73.8672 19.7155C72.1937 19.7155 70.5267 19.7283 68.8564 19.7761C67.2627 19.8239 65.6594 19.8462 64.0656 19.8462L62.6536 19.8398L61.4009 23.668C61.1618 24.3884 60.9451 25.112 60.7283 25.8355C60.5498 26.4284 60.0334 27.8978 60.0334 27.8978C59.8964 29.1346 58.7967 30.1801 57.5536 30.1801L55.8929 30.0876C54.3756 29.9952 52.8616 29.9028 51.3348 29.9028L44.8801 29.9155C42.6839 29.9283 40.4877 29.9888 38.2915 30.0494C36.685 30.094 35.0785 30.1355 33.472 30.161C33.0991 31.4806 32.6751 32.7811 32.2098 34.0656L35.5216 34.1039C38.2692 34.1294 41.0168 34.1549 43.7644 34.2409C46.0212 34.3143 48.2779 34.394 50.5347 34.547C52.7022 34.6936 54.8601 34.7318 57.034 34.7669L59.3322 34.8179C60.8208 34.8561 62.3157 34.8944 63.8074 34.8944L65.4012 34.8848C66.2044 34.8816 67.0109 34.8753 67.8078 34.8434C68.1903 34.8243 68.56 34.8115 68.9266 34.8115Z" fill="#EE6400"/>
</svg>
