<svg width="24" height="27" viewBox="0 0 24 27" fill="none" xmlns="http://www.w3.org/2000/svg">
<g clip-path="url(#clip0_688_5173)">
<path d="M11.9988 7.52639C8.59353 7.52639 5.84685 10.2737 5.84685 13.6797C5.84685 17.0857 8.59353 19.833 11.9988 19.833C15.404 19.833 18.1507 17.0857 18.1507 13.6797C18.1507 10.2737 15.404 7.52639 11.9988 7.52639ZM11.9988 17.6801C9.79821 17.6801 7.99922 15.8861 7.99922 13.6797C7.99922 11.4733 9.79286 9.67924 11.9988 9.67924C14.2047 9.67924 15.9983 11.4733 15.9983 13.6797C15.9983 15.8861 14.1993 17.6801 11.9988 17.6801ZM19.8373 7.27469C19.8373 8.07264 19.1948 8.70992 18.4023 8.70992C17.6046 8.70992 16.9674 8.06728 16.9674 7.27469C16.9674 6.4821 17.6099 5.83946 18.4023 5.83946C19.1948 5.83946 19.8373 6.4821 19.8373 7.27469ZM23.9118 8.73134C23.8207 6.80877 23.3817 5.10577 21.9736 3.70267C20.5708 2.29957 18.8682 1.86043 16.946 1.76403C14.965 1.65157 9.02722 1.65157 7.04618 1.76403C5.12939 1.85508 3.42677 2.29421 2.01863 3.69732C0.610483 5.10042 0.176796 6.80342 0.0804217 8.72599C-0.0320156 10.7075 -0.0320156 16.6466 0.0804217 18.628C0.171442 20.5506 0.610483 22.2536 2.01863 23.6567C3.42677 25.0598 5.12404 25.4989 7.04618 25.5953C9.02722 25.7078 14.965 25.7078 16.946 25.5953C18.8682 25.5043 20.5708 25.0652 21.9736 23.6567C23.3764 22.2536 23.8154 20.5506 23.9118 18.628C24.0242 16.6466 24.0242 10.7128 23.9118 8.73134ZM21.3525 20.7541C20.9349 21.8038 20.1264 22.6124 19.0716 23.0355C17.4921 23.6621 13.7442 23.5175 11.9988 23.5175C10.2533 23.5175 6.50005 23.6567 4.92593 23.0355C3.87652 22.6178 3.06804 21.8091 2.64506 20.7541C2.01863 19.1743 2.16319 15.4255 2.16319 13.6797C2.16319 11.9338 2.02398 8.17974 2.64506 6.60527C3.06269 5.55562 3.87116 4.74696 4.92593 4.32389C6.50541 3.69732 10.2533 3.84191 11.9988 3.84191C13.7442 3.84191 17.4975 3.70267 19.0716 4.32389C20.121 4.74161 20.9295 5.55027 21.3525 6.60527C21.9789 8.1851 21.8344 11.9338 21.8344 13.6797C21.8344 15.4255 21.9789 19.1796 21.3525 20.7541Z" fill="#0A0400"/>
</g>
<defs>
<clipPath id="clip0_688_5173">
<rect width="24" height="27" fill="white"/>
</clipPath>
</defs>
</svg>
