<svg width="72" height="72" viewBox="0 0 72 72" fill="none" xmlns="http://www.w3.org/2000/svg">
<path d="M47.0043 64.2393C45.3032 64.233 43.6483 63.6853 42.2793 62.6756L37.4193 59.1206C36.8162 58.6765 36.087 58.437 35.338 58.437C34.5891 58.437 33.8598 58.6765 33.2568 59.1206L28.3968 62.6756C27.14 63.5934 25.6437 64.1264 24.0896 64.2097C22.5356 64.2931 20.9909 63.9232 19.6431 63.1451C18.2954 62.3669 17.2027 61.214 16.4979 59.8265C15.7931 58.439 15.5065 56.8766 15.673 55.3293L16.3255 49.3443C16.4093 48.6006 16.2524 47.8495 15.8778 47.2016C15.5032 46.5536 14.9306 46.0428 14.2443 45.7443L8.74305 43.3143C7.31571 42.6885 6.10159 41.6605 5.24906 40.3559C4.39653 39.0513 3.94252 37.5265 3.94252 35.9681C3.94252 34.4096 4.39653 32.8848 5.24906 31.5802C6.10159 30.2756 7.31571 29.2476 8.74305 28.6218L14.2443 26.1918C14.9306 25.8933 15.5032 25.3825 15.8778 24.7345C16.2524 24.0866 16.4093 23.3356 16.3255 22.5918L15.673 16.6068C15.5065 15.0595 15.7931 13.4971 16.4979 12.1096C17.2027 10.7221 18.2954 9.56919 19.6431 8.79104C20.9909 8.0129 22.5356 7.64302 24.0896 7.72638C25.6437 7.80973 27.14 8.34272 28.3968 9.26056L33.2568 12.8156C33.8598 13.2596 34.5891 13.4992 35.338 13.4992C36.087 13.4992 36.8162 13.2596 37.4193 12.8156L42.2793 9.26056C43.1448 8.61999 44.1324 8.1637 45.1811 7.91989C46.2299 7.67608 47.3175 7.64993 48.3768 7.84306C49.4589 8.0394 50.4901 8.45256 51.4085 9.05769C52.3268 9.66282 53.1132 10.4474 53.7205 11.3643C53.8889 11.6109 54.0065 11.8886 54.0665 12.1811C54.1264 12.4737 54.1276 12.7752 54.0698 13.0682C54.0121 13.3611 53.8966 13.6397 53.7301 13.8876C53.5636 14.1355 53.3494 14.3477 53.1 14.512C52.8506 14.6762 52.571 14.7892 52.2775 14.8443C51.9841 14.8994 51.6825 14.8956 51.3906 14.833C51.0986 14.7703 50.822 14.6502 50.5769 14.4796C50.3318 14.309 50.1231 14.0914 49.963 13.8393C49.6915 13.4313 49.3402 13.0824 48.9304 12.8137C48.5205 12.5449 48.0605 12.3619 47.578 12.2756C47.1135 12.1899 46.6361 12.2027 46.1769 12.3132C45.7176 12.4236 45.2866 12.6293 44.9118 12.9168L40.0518 16.4718C38.6763 17.48 37.0153 18.0235 35.3099 18.0235C33.6045 18.0235 31.9435 17.48 30.568 16.4718L25.7193 12.9168C25.1683 12.4984 24.5062 12.2516 23.8157 12.2072C23.1252 12.1629 22.437 12.3229 21.8369 12.6673C21.2369 13.0118 20.7516 13.5253 20.4417 14.1439C20.1317 14.7625 20.0109 15.4587 20.0943 16.1456L20.7468 22.1193C20.9429 23.8096 20.5949 25.5185 19.7532 26.9974C18.9116 28.4764 17.6202 29.6484 16.0668 30.3431L10.5543 32.7731C9.92947 33.0504 9.39853 33.5031 9.02588 34.0762C8.65323 34.6493 8.45488 35.3182 8.45488 36.0018C8.45488 36.6854 8.65323 37.3543 9.02588 37.9274C9.39853 38.5006 9.92947 38.9532 10.5543 39.2306L16.0668 41.5931C17.6287 42.2782 18.9307 43.4446 19.7827 44.922C20.6348 46.3995 20.9923 48.1106 20.803 49.8056L20.1505 55.7793C20.0672 56.4662 20.188 57.1623 20.4979 57.7809C20.8078 58.3995 21.2931 58.9131 21.8932 59.2575C22.4933 59.602 23.1815 59.762 23.872 59.7176C24.5624 59.6733 25.2245 59.4265 25.7755 59.0081L30.6243 55.4531C31.9998 54.4449 33.6608 53.9014 35.3662 53.9014C37.0716 53.9014 38.7326 54.4449 40.108 55.4531L44.968 59.0081C45.5191 59.4265 46.1812 59.6733 46.8716 59.7176C47.5621 59.762 48.2503 59.602 48.8504 59.2575C49.4505 58.9131 49.9358 58.3995 50.2457 57.7809C50.5556 57.1623 50.6764 56.4662 50.593 55.7793L49.9405 49.8056C49.7443 48.1181 50.0911 46.412 50.9307 44.9351C51.7703 43.4583 53.0589 42.2875 54.6093 41.5931L60.1218 39.1631C60.7466 38.8857 61.2776 38.4331 61.6502 37.86C62.0229 37.2868 62.2212 36.6179 62.2212 35.9343C62.2212 35.2507 62.0229 34.5818 61.6502 34.0087C61.2776 33.4356 60.7466 32.9829 60.1218 32.7056L57.1293 31.4681C56.8508 31.3546 56.5978 31.1866 56.3854 30.9737C56.1729 30.7609 56.0053 30.5076 55.8924 30.2289C55.7795 29.9502 55.7236 29.6516 55.7281 29.3509C55.7325 29.0502 55.7972 28.7535 55.9183 28.4782C56.0394 28.2029 56.2144 27.9547 56.4331 27.7483C56.6517 27.5418 56.9095 27.3813 57.1913 27.2761C57.473 27.171 57.773 27.1234 58.0734 27.1362C58.3739 27.149 58.6687 27.2219 58.9405 27.3506L61.933 28.6668C63.3604 29.2926 64.5745 30.3206 65.427 31.6252C66.2796 32.9298 66.7336 34.4546 66.7336 36.0131C66.7336 37.5715 66.2796 39.0963 65.427 40.4009C64.5745 41.7055 63.3604 42.7335 61.933 43.3593L56.4318 45.7893C55.7456 46.0889 55.1727 46.5995 54.7964 47.2469C54.4201 47.8943 54.26 48.6447 54.3393 49.3893L54.9918 55.3743C55.1806 56.9233 54.905 58.4934 54.2 59.8855C53.495 61.2775 52.3922 62.4288 51.0318 63.1931C49.8039 63.8881 48.4152 64.2488 47.0043 64.2393Z" fill="#1C1C1C"/>
<path d="M35.595 43.8755C35.2981 43.8757 35.0041 43.8172 34.7299 43.7033C34.4557 43.5894 34.2068 43.4223 33.9975 43.2117L24.3113 33.5255C24.0698 33.3249 23.8731 33.0759 23.7336 32.7947C23.5941 32.5135 23.5151 32.2062 23.5015 31.8925C23.4879 31.5789 23.54 31.2659 23.6546 30.9737C23.7692 30.6814 23.9437 30.4164 24.1669 30.1956C24.39 29.9748 24.6569 29.8032 24.9503 29.6917C25.2438 29.5802 25.5573 29.5314 25.8708 29.5483C26.1842 29.5653 26.4907 29.6476 26.7704 29.7901C27.0501 29.9325 27.297 30.1319 27.495 30.3755L35.595 38.4755L64.215 9.81049C64.6437 9.42342 65.2048 9.21602 65.7822 9.23125C66.3596 9.24648 66.909 9.48317 67.3167 9.8923C67.7244 10.3014 67.9591 10.8517 67.9723 11.4291C67.9855 12.0065 67.7761 12.5669 67.3875 12.9942L37.1813 43.2005C36.9742 43.4118 36.7275 43.5801 36.4553 43.6959C36.1832 43.8118 35.8908 43.8728 35.595 43.8755Z" fill="#FF6B00"/>
</svg>
