<svg width="32" height="36" viewBox="0 0 32 36" fill="none" xmlns="http://www.w3.org/2000/svg">
<g clip-path="url(#clip0_899_165)">
<path d="M15.9987 9.7956C11.4584 9.7956 7.79612 13.4587 7.79612 18C7.79612 22.5413 11.4584 26.2044 15.9987 26.2044C20.539 26.2044 24.2013 22.5413 24.2013 18C24.2013 13.4587 20.539 9.7956 15.9987 9.7956ZM15.9987 23.3339C13.0646 23.3339 10.6659 20.9419 10.6659 18C10.6659 15.0581 13.0575 12.6661 15.9987 12.6661C18.9399 12.6661 21.3314 15.0581 21.3314 18C21.3314 20.9419 18.9328 23.3339 15.9987 23.3339ZM26.45 9.46C26.45 10.5239 25.5933 11.3736 24.5368 11.3736C23.4731 11.3736 22.6236 10.5168 22.6236 9.46C22.6236 8.40321 23.4802 7.54636 24.5368 7.54636C25.5933 7.54636 26.45 8.40321 26.45 9.46ZM31.8827 11.4022C31.7613 8.83878 31.1759 6.56811 29.2984 4.69731C27.428 2.82651 25.1579 2.24099 22.595 2.11246C19.9536 1.96251 12.0366 1.96251 9.39523 2.11246C6.83951 2.23385 4.56935 2.81937 2.69183 4.69017C0.814303 6.56097 0.236054 8.83164 0.107554 11.3951C-0.0423619 14.037 -0.0423619 21.9558 0.107554 24.5978C0.228915 27.1612 0.814303 29.4319 2.69183 31.3027C4.56935 33.1735 6.83237 33.759 9.39523 33.8875C12.0366 34.0375 19.9536 34.0375 22.595 33.8875C25.1579 33.7661 27.428 33.1806 29.2984 31.3027C31.1688 29.4319 31.7542 27.1612 31.8827 24.5978C32.0326 21.9558 32.0326 14.0442 31.8827 11.4022ZM28.4703 27.4326C27.9135 28.8321 26.8355 29.9103 25.4291 30.4744C23.3232 31.3098 18.326 31.117 15.9987 31.117C13.6714 31.117 8.66706 31.3027 6.56823 30.4744C5.16902 29.9174 4.09105 28.8392 3.52708 27.4326C2.69183 25.3261 2.88458 20.3278 2.88458 18C2.88458 15.6722 2.69897 10.6667 3.52708 8.56744C4.08391 7.16791 5.16188 6.0897 6.56823 5.52561C8.6742 4.69017 13.6714 4.88296 15.9987 4.88296C18.326 4.88296 23.3303 4.69731 25.4291 5.52561C26.8284 6.08256 27.9063 7.16077 28.4703 8.56744C29.3055 10.6739 29.1128 15.6722 29.1128 18C29.1128 20.3278 29.3055 25.3333 28.4703 27.4326Z" fill="#FDFDFD"/>
</g>
<defs>
<clipPath id="clip0_899_165">
<rect width="32" height="36" fill="white"/>
</clipPath>
</defs>
</svg>
