<svg width="102" height="102" viewBox="0 0 102 102" fill="none" xmlns="http://www.w3.org/2000/svg">
<g clip-path="url(#clip0_759_14219)">
<path d="M63.75 70.125H70.125L54.1875 31.875H47.8125L31.875 70.125H38.25L42.2025 60.5625H59.8294L63.75 70.125ZM44.8481 54.1875L50.6494 40.0987H51.4462L57.375 54.1875H44.8481Z" fill="#EE6400"/>
<path d="M38.25 89.25H19.125C17.4342 89.25 15.8127 88.5783 14.6172 87.3828C13.4216 86.1873 12.75 84.5658 12.75 82.875V19.125C12.75 17.4342 13.4216 15.8127 14.6172 14.6172C15.8127 13.4216 17.4342 12.75 19.125 12.75H82.875C84.5658 12.75 86.1873 13.4216 87.3828 14.6172C88.5783 15.8127 89.25 17.4342 89.25 19.125V54.1875H82.875V19.125H19.125V82.875H38.25V89.25Z" fill="#EE6400"/>
<path d="M73.3125 86.6365L65.0569 78.3809L60.5625 82.8752L73.3125 95.6252L95.625 73.3127L91.1306 68.8184L73.3125 86.6365Z" fill="#EE6400"/>
</g>
<defs>
<clipPath id="clip0_759_14219">
<rect width="102" height="102" fill="white"/>
</clipPath>
</defs>
</svg>
